<svg xmlns="http://www.w3.org/2000/svg" version="1.1" xmlns:xlink="http://www.w3.org/1999/xlink" xmlns:svgjs="http://svgjs.dev/svgjs" width="1000" height="1000" viewBox="0 0 1000 1000"><rect width="1000" height="1000" fill="#ffffff"></rect><g transform="matrix(0.7,0,0,0.7,149.57575757575756,282.1265587044535)"><svg viewBox="0 0 396 247" data-background-color="#331e6d" preserveAspectRatio="xMidYMid meet" height="623" width="1000" xmlns="http://www.w3.org/2000/svg" xmlns:xlink="http://www.w3.org/1999/xlink"><defs></defs><g id="tight-bounds" transform="matrix(1,0,0,1,0.2400000000000091,-0.09999999999999432)"><svg viewBox="0 0 395.52 247.2" height="247.2" width="395.52"><g><svg></svg></g><g><svg viewBox="0 0 395.52 247.2" height="247.2" width="395.52"><g transform="matrix(9.730159172035059, 0, 0, 9.730159172035059, 67.12540116349786, 1)"><svg xmlns="http://www.w3.org/2000/svg" viewBox="2.548516273498535 3.4000000953674316 26.851482391357422 25.19999885559082" style="enable-background:new 0 0 32 32" xml:space="preserve" x="0" y="0" height="25.19999885559082" width="26.851482391357422" class="icon-none" data-fill-palette-color="accent" id="none"><path d="M25.6 3.4c-0.4 0-0.7 0.3-0.8 0.7l-1.7 7H3.5c-0.7 0-1.1 0.6-0.9 1.3l2.9 8.7c0.1 0.4 0.5 0.7 0.9 0.7h15.5c0.4 0 0.8-0.3 0.9-0.8l1.9-8.6 1.7-7h2.1c0.5 0 0.9-0.4 0.9-1 0-0.5-0.4-1-0.9-1h-2.9zM9.2 16h9.7c0.5 0 1 0.4 1 1 0 0.5-0.4 1-1 1H9.3c-0.5 0-1-0.4-1-0.9-0.1-0.6 0.3-1.1 0.9-1.1zM9.9 22.8c-1.6 0-2.9 1.3-2.9 2.9 0 1.6 1.3 2.9 2.9 2.9s2.9-1.3 2.9-2.9c0-1.6-1.3-2.9-2.9-2.9zM17.3 22.8c-1.6 0-2.9 1.3-2.9 2.9 0 1.6 1.3 2.9 2.9 2.9 1.6 0 2.9-1.3 2.9-2.9 0-1.6-1.3-2.9-2.9-2.9z" fill="#000000" data-fill-palette-color="accent"></path><path d="M11.4 5.4c-1.7 0-3.1 1.4-3.1 3.1v0.7h11.6v-0.7c0-1.7-1.4-3.1-3.1-3.1h-5.4z" fill="#000000" data-fill-palette-color="accent"></path></svg></g><rect width="348.05760000000004" height="117.82962613197165" fill="#331e6d" y="64.68518693401417" x="23.731199999999973" data-fill-palette-color="quaternary"></rect><g transform="matrix(1,0,0,1,39.55199999999999,83.58048226950353)"><svg viewBox="0 0 316.416 80.03903546099292" height="80.03903546099292" width="316.416"><g><svg viewBox="0 0 316.416 80.03903546099292" height="80.03903546099292" width="316.416"><g><svg viewBox="0 0 316.416 80.03903546099292" height="80.03903546099292" width="316.416"><g><svg viewBox="0 0 316.416 80.03903546099292" height="80.03903546099292" width="316.416"><g><svg viewBox="0 0 316.416 80.03903546099292" height="80.03903546099292" width="316.416"><g transform="matrix(1,0,0,1,0,0)"><svg width="316.416" viewBox="4.150000095367432 -38.79999923706055 190.8300018310547 48.150001525878906" height="80.03903546099292" data-palette-color="#f2db94"><g class="undefined-text-0" data-fill-palette-color="primary" id="text-0"><path d="M10.45-5.45L26.05-5.45 26.05 0 4.15 0 4.15-34.65 10.45-34.65 10.45-5.45ZM29.1-12.95L29.1-12.95Q29.1-16.4 30.12-19 31.15-21.6 32.85-23.33 34.55-25.05 36.75-25.93 38.95-26.8 41.25-26.8L41.25-26.8Q46.65-26.8 49.67-23.45 52.7-20.1 52.7-13.45L52.7-13.45Q52.7-12.95 52.67-12.33 52.65-11.7 52.6-11.2L52.6-11.2 35.35-11.2Q35.6-8.05 37.57-6.33 39.55-4.6 43.3-4.6L43.3-4.6Q45.5-4.6 47.32-5 49.15-5.4 50.2-5.85L50.2-5.85 51-0.9Q50.5-0.65 49.62-0.38 48.75-0.1 47.62 0.13 46.5 0.35 45.2 0.5 43.9 0.65 42.55 0.65L42.55 0.65Q39.1 0.65 36.55-0.38 34-1.4 32.35-3.23 30.7-5.05 29.9-7.53 29.1-10 29.1-12.95ZM35.4-15.65L46.65-15.65Q46.65-16.9 46.3-18.03 45.95-19.15 45.27-19.98 44.6-20.8 43.62-21.28 42.65-21.75 41.3-21.75L41.3-21.75Q39.9-21.75 38.85-21.23 37.8-20.7 37.07-19.85 36.35-19 35.95-17.9 35.55-16.8 35.4-15.65L35.4-15.65ZM58.8-10.4L58.8-33.05 64.84-34.05 64.84-26.15 74.15-26.15 74.15-21.1 64.84-21.1 64.84-10.45Q64.84-7.3 65.84-5.95 66.84-4.6 69.25-4.6L69.25-4.6Q70.9-4.6 72.17-4.95 73.45-5.3 74.2-5.6L74.2-5.6 75.2-0.8Q74.15-0.35 72.45 0.13 70.75 0.6 68.45 0.6L68.45 0.6Q65.65 0.6 63.77-0.15 61.9-0.9 60.8-2.33 59.7-3.75 59.25-5.78 58.8-7.8 58.8-10.4L58.8-10.4ZM86.09-26.15L86.09 0 80.04 0 80.04-26.15 86.09-26.15ZM86.74-33.8L86.74-33.8Q86.74-32.1 85.64-31.1 84.54-30.1 83.04-30.1L83.04-30.1Q81.49-30.1 80.39-31.1 79.29-32.1 79.29-33.8L79.29-33.8Q79.29-35.55 80.39-36.55 81.49-37.55 83.04-37.55L83.04-37.55Q84.54-37.55 85.64-36.55 86.74-35.55 86.74-33.8ZM93.49-10.4L93.49-33.05 99.54-34.05 99.54-26.15 108.84-26.15 108.84-21.1 99.54-21.1 99.54-10.45Q99.54-7.3 100.54-5.95 101.54-4.6 103.94-4.6L103.94-4.6Q105.59-4.6 106.87-4.95 108.14-5.3 108.89-5.6L108.89-5.6 109.89-0.8Q108.84-0.35 107.14 0.13 105.44 0.6 103.14 0.6L103.14 0.6Q100.34 0.6 98.47-0.15 96.59-0.9 95.49-2.33 94.39-3.75 93.94-5.78 93.49-7.8 93.49-10.4L93.49-10.4ZM132.04-13.15L132.04-13.15Q132.04-17 130.51-19.25 128.99-21.5 125.69-21.5L125.69-21.5Q124.19-21.5 122.86-21.05 121.54-20.6 120.74-20.05L120.74-20.05 120.74-5Q121.39-4.85 122.41-4.73 123.44-4.6 124.89-4.6L124.89-4.6Q128.24-4.6 130.14-6.88 132.04-9.15 132.04-13.15ZM138.24-13.05L138.24-13.05Q138.24-9.9 137.31-7.38 136.39-4.85 134.66-3.05 132.94-1.25 130.49-0.3 128.04 0.65 124.94 0.65L124.94 0.65Q121.94 0.65 119.21 0.2 116.49-0.25 114.69-0.8L114.69-0.8 114.69-37.8 120.74-38.8 120.74-25.25Q121.79-25.8 123.31-26.25 124.84-26.7 126.69-26.7L126.69-26.7Q129.44-26.7 131.61-25.73 133.79-24.75 135.24-22.95 136.69-21.15 137.46-18.63 138.24-16.1 138.24-13.05ZM165.94-26.15L165.94-0.8Q164.19-0.35 161.39 0.13 158.59 0.6 155.24 0.6L155.24 0.6Q152.09 0.6 149.96-0.3 147.84-1.2 146.56-2.8 145.29-4.4 144.74-6.63 144.19-8.85 144.19-11.5L144.19-11.5 144.19-26.15 150.24-26.15 150.24-12.45Q150.24-8.25 151.46-6.45 152.69-4.65 155.74-4.65L155.74-4.65Q156.84-4.65 158.06-4.75 159.29-4.85 159.89-5L159.89-5 159.89-26.15 165.94-26.15ZM188.73-26.15L194.98-26.15Q190.93-11.25 185.58 0.85L185.58 0.85Q184.58 3.1 183.53 4.7 182.48 6.3 181.18 7.35 179.88 8.4 178.28 8.88 176.68 9.35 174.58 9.35L174.58 9.35Q173.18 9.35 171.81 9.05 170.43 8.75 169.73 8.4L169.73 8.4 170.83 3.55Q172.63 4.25 174.38 4.25L174.38 4.25Q176.73 4.25 178.06 3.13 179.38 2 180.38-0.35L180.38-0.35Q177.53-5.85 174.91-12.35 172.28-18.85 170.23-26.15L170.23-26.15 176.68-26.15Q177.18-24.05 177.91-21.6 178.63-19.15 179.48-16.63 180.33-14.1 181.28-11.6 182.23-9.1 183.18-6.95L183.18-6.95Q184.78-11.4 186.18-16.43 187.58-21.45 188.73-26.15L188.73-26.15Z" fill="#000000" data-fill-palette-color="primary"></path></g></svg></g></svg></g></svg></g></svg></g></svg></g></svg></g></svg></g></svg><rect width="395.52" height="247.2" fill="none" stroke="none" visibility="hidden"></rect></g></svg></g></svg>